<?xml version="1.0" encoding="UTF-8"?>
<svg id="Layer_1" data-name="Layer 1" xmlns="http://www.w3.org/2000/svg" version="1.1" viewBox="0 0 492 492">
  <defs>
    <style>
      .cls-1 {
        fill: #141414;
        stroke-width: 0px;
      }
    </style>
  </defs>
  <path class="cls-1" d="M215.6,66.5h61.4c2.9,0,5.2,2.3,5.2,5.2v30.3c0,.3,0,.7,0,1h-71.7c0-.3,0-.6,0-1v-30.3c0-2.9,2.3-5.2,5.2-5.2Z"/>
  <path class="cls-1" d="M129.7,137.5h-25.1v-37.7h283.4v37.7H129.7Z"/>
  <path class="cls-1" d="M362.8,150.4v284.7h-233.2V150.4h233.2ZM307.2,194.4c0-2.9-2.3-5.2-5.2-5.2s-5.2,2.3-5.2,5.2v170.6c0,2.9,2.3,5.2,5.2,5.2s5.2-2.3,5.2-5.2v-170.6h0ZM251.5,194.4c0-2.9-2.3-5.2-5.2-5.2s-5.2,2.3-5.2,5.2v170.6c0,2.9,2.3,5.2,5.2,5.2s5.2-2.3,5.2-5.2v-170.6h0ZM195.8,194.4c0-2.9-2.3-5.2-5.2-5.2s-5.2,2.3-5.2,5.2v170.6c0,2.9,2.3,5.2,5.2,5.2s5.2-2.3,5.2-5.2v-170.6Z"/>
</svg>