<?xml version="1.0" encoding="UTF-8"?>
<svg id="Capa_3" data-name="Capa 3" xmlns="http://www.w3.org/2000/svg" version="1.1" viewBox="0 0 2122 2122">
  <defs>
    <style>
      .cls-1 {
        fill: #0a0600;
        stroke-width: 0px;
      }
    </style>
  </defs>
  <path class="cls-1" d="M770,1810.2c381.8,86.4,810-120.1,798.5-464-7.7-229.4-365.6-133.4-486.2-277.8-100.4-120.2,191.7-367.6-37.3-473.4-355.4-164.2-752.9,115.6-828.9,451.1-75.9,335.5,172.1,677.6,553.9,764ZM1210,1417.7c62.5-38,138.4-27.2,169.6,24.1,31.1,51.3,5.6,123.6-56.9,161.5-62.5,38-138.5,27.2-169.6-24.1-31.1-51.3-5.6-123.6,56.9-161.6ZM1055.4,1609.9c8.1,59.4-44.1,115.6-116.6,125.5-72.5,9.9-137.8-30.3-145.9-89.7-8.1-59.4,44.1-115.6,116.6-125.5,72.5-9.9,137.8,30.3,145.9,89.7ZM717.9,754.1c3.9-54.3,66.3-94.1,139.2-88.8,73,5.3,128.9,53.6,125,107.9-3.9,54.3-66.3,94.1-139.2,88.8-73-5.3-128.9-53.6-125-107.9ZM699.5,1599c-38.4,38.7-111.6,28.3-163.5-23.2-51.9-51.5-62.9-124.6-24.6-163.3,38.4-38.7,111.6-28.3,163.5,23.2,51.9,51.5,62.9,124.6,24.6,163.3ZM475.5,821.9c65.5-32.6,138.2-19.5,162.5,29.2,24.3,48.8-9.1,114.7-74.6,147.3-65.5,32.6-138.3,19.5-162.5-29.2-24.3-48.8,9.1-114.7,74.6-147.4ZM315.9,1239.3c-14.8-71.6,20.9-139.5,79.6-151.7,58.7-12.1,118.3,36.2,133.1,107.8,14.8,71.6-20.9,139.5-79.6,151.7-58.7,12.1-118.3-36.1-133.1-107.8Z"/>
  <path class="cls-1" d="M1614,1275.1l111.3-65.9c-34.1-109.4-110-271.3-212.2-443.9-172-290.5-353.1-501.4-404.5-471-51.4,30.4,46.4,290.6,218.4,581.2,102.2,172.6,207.6,317.1,287.1,399.6Z"/>
  <path class="cls-1" d="M1657.2,1350c6.8,11.6,16.7,20.2,27.9,25.7-13.6,19.2-21.4,48.6-6.8,92.7,35.1,105.8,124.7,85.7,193.1,159.7,0,0,115.8-144.7-14.2-265.6-29.3-27.3-55.3-38.1-77.7-38.4,1.6-13.9-1-28.3-8.7-41.3l-28.2-47.6-113.6,67.2,28.2,47.6Z"/>
</svg>